<svg xmlns="http://www.w3.org/2000/svg" width="24" height="24" viewBox="0 0 24 24"><defs><style>.a{fill:#393939;}.b{fill:none;}</style></defs><g transform="translate(-305 -7173)"><g transform="translate(307 7176.777)"><path class="a" d="M21.188,9.217H12.716L10.723,6.75H4.243A2.106,2.106,0,0,0,2.25,8.943V21A2.106,2.106,0,0,0,4.243,23.2H21.188A2.106,2.106,0,0,0,23.182,21V11.41A2.106,2.106,0,0,0,21.188,9.217ZM21.687,21a.532.532,0,0,1-.5.548H4.243a.532.532,0,0,1-.5-.548V10.862H21.188a.532.532,0,0,1,.5.548Z" transform="translate(-2.25 -6.75)"/></g><rect class="b" width="24" height="24" transform="translate(305 7173)"/></g></svg>